<?xml version="1.0" encoding="utf-8"?>
<!-- Generator: Adobe Illustrator 16.0.0, SVG Export Plug-In . SVG Version: 6.00 Build 0)  -->
<!DOCTYPE svg PUBLIC "-//W3C//DTD SVG 1.1//EN" "http://www.w3.org/Graphics/SVG/1.1/DTD/svg11.dtd">
<svg version="1.1" id="图层_1" xmlns="http://www.w3.org/2000/svg" xmlns:xlink="http://www.w3.org/1999/xlink" x="0px" y="0px"
	 width="30px" height="30px" viewBox="0 0 30 30" enable-background="new 0 0 30 30" xml:space="preserve">
<g>
	<path fill="#585757" d="M19.221,8.735c-0.527-0.008-1.054-0.004-1.582-0.004c-0.702,0.002-1.122,0.365-1.165,1.06
		c-0.036,0.556-0.009,1.116-0.022,1.675c-0.007,0.198,0.112,0.186,0.245,0.186c0.801-0.002,1.602,0.008,2.404-0.006
		c0.235-0.004,0.312,0.049,0.286,0.297c-0.101,0.935-0.188,1.867-0.269,2.803c-0.018,0.211-0.112,0.251-0.303,0.249
		c-0.632-0.011-1.266-0.009-1.898-0.004c-0.454,0.004-0.409-0.066-0.409,0.397c-0.002,2.909-0.008,5.821,0.004,8.732
		c0.002,0.309-0.076,0.383-0.38,0.379c-1.087-0.021-2.173-0.021-3.259,0c-0.307,0.007-0.356-0.098-0.354-0.371
		c0.011-1.465,0.004-2.932,0.004-4.396c0-1.487-0.004-2.977,0.007-4.462c0.002-0.252-0.069-0.328-0.32-0.319
		c-0.463,0.019-0.928-0.002-1.392,0.009c-0.188,0.006-0.257-0.047-0.256-0.246c0.011-0.927,0.009-1.857,0.001-2.785
		c-0.001-0.179,0.054-0.236,0.232-0.232c0.476,0.011,0.951-0.012,1.424,0.01c0.275,0.015,0.332-0.084,0.325-0.338
		c-0.017-0.706-0.017-1.414-0.001-2.119c0.021-0.863,0.251-1.668,0.765-2.371c0.65-0.887,1.574-1.294,2.642-1.341
		c1.094-0.048,2.192-0.021,3.291-0.033c0.15-0.003,0.196,0.054,0.195,0.201c-0.003,0.938-0.005,1.878,0.001,2.817
		C19.439,8.686,19.386,8.737,19.221,8.735"/>
</g>
</svg>
