<?xml version="1.0" encoding="utf-8"?>
<!-- Generator: Adobe Illustrator 16.0.0, SVG Export Plug-In . SVG Version: 6.00 Build 0)  -->
<!DOCTYPE svg PUBLIC "-//W3C//DTD SVG 1.1//EN" "http://www.w3.org/Graphics/SVG/1.1/DTD/svg11.dtd">
<svg version="1.1" id="图层_1" xmlns="http://www.w3.org/2000/svg" xmlns:xlink="http://www.w3.org/1999/xlink" x="0px" y="0px"
	 width="30px" height="30px" viewBox="0 0 30 30" enable-background="new 0 0 30 30" xml:space="preserve">
<g>
	<path fill="#585757" d="M24.142,11.764c-1.611,0.014-3.225,0.011-4.837,0.002c-0.28-0.002-0.371,0.017-0.23,0.33
		c0.387,0.861,0.478,1.767,0.271,2.691c-0.575,2.594-3.209,4.131-5.703,3.333c-2.52-0.807-3.792-3.542-2.769-5.993
		c0.131-0.316,0.077-0.365-0.238-0.363c-1.575,0.012-3.15,0.017-4.726-0.002c-0.343-0.004-0.407,0.11-0.406,0.422
		c0.01,3.414,0.004,6.828,0.007,10.24c0.002,1.293,0.795,2.075,2.096,2.075h7.366h7.405c1.302,0,2.105-0.765,2.109-2.065
		c0.011-3.437,0.001-6.875,0.009-10.313C24.497,11.848,24.424,11.762,24.142,11.764"/>
	<path fill="#585757" d="M5.866,11.254c1.736-0.012,3.472-0.01,5.209,0c0.209,0,0.331-0.078,0.464-0.231
		c1.858-2.185,5.034-2.183,6.89,0.008c0.125,0.15,0.25,0.203,0.438,0.203c1.761-0.006,3.523-0.008,5.284,0.001
		c0.249,0.001,0.348-0.059,0.344-0.328c-0.011-1.129,0.011-2.259-0.009-3.389c-0.022-1.258-0.818-2.014-2.084-2.016
		c-2.469,0-4.937,0-7.404,0c-2.493,0-4.987-0.002-7.479,0.002C6.334,5.506,5.524,6.297,5.513,7.479
		C5.501,8.621,5.52,9.764,5.504,10.905C5.5,11.191,5.597,11.256,5.866,11.254 M19.227,7.865c0.024-0.687,0.509-1.187,1.196-1.234
		c0.297-0.021,0.594-0.004,0.893-0.004V6.623c0.271,0,0.546-0.011,0.816,0.002c0.736,0.033,1.25,0.558,1.27,1.291
		c0.008,0.348,0.01,0.694-0.001,1.041c-0.021,0.68-0.463,1.187-1.134,1.258c-0.643,0.066-1.289,0.066-1.93-0.002
		c-0.643-0.069-1.082-0.554-1.11-1.194C19.211,8.635,19.211,8.25,19.227,7.865 M9.759,8.422c0-0.547,0.01-1.092-0.004-1.639
		C9.75,6.549,9.845,6.486,10.063,6.49c0.208,0.004,0.313,0.042,0.312,0.287c-0.011,1.116-0.01,2.232-0.001,3.35
		c0.001,0.219-0.087,0.275-0.286,0.271c-0.19-0.003-0.338-0.004-0.333-0.266C9.77,9.563,9.759,8.991,9.759,8.422 M8.664,6.787
		C8.662,6.559,8.733,6.489,8.961,6.488c0.237,0,0.325,0.067,0.317,0.319C9.261,7.353,9.272,7.898,9.272,8.445
		c0,0.546-0.012,1.092,0.006,1.639c0.008,0.25-0.08,0.318-0.317,0.318c-0.228-0.002-0.299-0.07-0.297-0.3
		C8.675,8.998,8.675,7.894,8.664,6.787 M7.515,6.782C7.513,6.506,7.658,6.5,7.866,6.49C8.1,6.482,8.162,6.571,8.157,6.793
		C8.145,7.353,8.154,7.91,8.154,8.472c0,0.545-0.012,1.092,0.003,1.637c0.008,0.238-0.085,0.294-0.303,0.292
		c-0.222-0.002-0.342-0.039-0.34-0.303C7.527,8.992,7.527,7.888,7.515,6.782 M6.503,7.52C6.505,7.148,6.73,6.924,7.074,6.688v0.752
		c0,0.891-0.006,1.779,0.004,2.67c0.003,0.237-0.095,0.291-0.309,0.293c-0.216,0-0.272-0.082-0.271-0.286
		C6.506,9.252,6.5,8.385,6.503,7.52"/>
	<path fill="#585757" d="M15,9.898c-2.212-0.002-4.008,1.788-4.003,3.99c0.007,2.187,1.791,3.974,3.979,3.979
		c2.21,0.009,3.993-1.776,3.992-3.993C18.966,11.676,17.194,9.9,15,9.898 M15,17.073c-1.781-0.008-3.208-1.446-3.203-3.228
		c0.003-1.789,1.455-3.213,3.264-3.203c1.764,0.01,3.187,1.477,3.166,3.264C18.206,15.666,16.766,17.082,15,17.073"/>
</g>
</svg>
