<?xml version="1.0" encoding="utf-8"?>
<!-- Generator: Adobe Illustrator 16.0.0, SVG Export Plug-In . SVG Version: 6.00 Build 0)  -->
<!DOCTYPE svg PUBLIC "-//W3C//DTD SVG 1.1//EN" "http://www.w3.org/Graphics/SVG/1.1/DTD/svg11.dtd">
<svg version="1.1" id="图层_1" xmlns="http://www.w3.org/2000/svg" xmlns:xlink="http://www.w3.org/1999/xlink" x="0px" y="0px"
	 width="30px" height="30px" viewBox="0 0 30 30" enable-background="new 0 0 30 30" xml:space="preserve">
<g>
	<path fill="#595757" d="M13.909,14.35l-0.01-0.011c0-1.341-1.086-2.427-2.425-2.427c-1.264,0-2.303,0.958-2.418,2.191
		c0.667-0.315,1.415-0.489,2.202-0.489h0.005c-0.404,0.643-0.692,1.383-0.741,2.183c-0.11-0.219-0.338-0.371-0.601-0.371
		c-0.371,0-0.671,0.299-0.671,0.668c0,0.37,0.293,0.682,0.667,0.682c-0.369,0.002-0.667,0.302-0.667,0.668
		c0,0.371,0.3,0.67,0.671,0.67c0.37,0,0.67-0.299,0.67-0.67c0,0.371,0.301,0.67,0.669,0.67c0.371,0,0.671-0.299,0.671-0.67
		c0-0.368-0.3-0.668-0.671-0.668l-0.003-0.012h0.003c0.371,0,0.671-0.3,0.671-0.67c0-0.369-0.3-0.668-0.671-0.668
		c-0.23,0-0.438,0.129-0.558,0.305c0.144-0.791,0.502-1.504,0.994-2.098C12.5,13.701,13.255,13.954,13.909,14.35 M10.863,16.775
		c0,0.149-0.123,0.271-0.271,0.271c-0.153,0-0.275-0.122-0.275-0.271c0-0.152,0.122-0.274,0.275-0.274
		C10.74,16.501,10.863,16.623,10.863,16.775"/>
	<path fill="#595757" d="M18.553,11.912c-1.34,0-2.427,1.086-2.427,2.424l-0.01,0.013c0.772-0.466,1.682-0.735,2.652-0.735
		c0.785,0,1.531,0.178,2.199,0.493C20.852,12.873,19.816,11.912,18.553,11.912"/>
	<path fill="#595757" d="M15,5.49c-5.244,0-9.496,4.257-9.496,9.51S9.756,24.51,15,24.51c5.246,0,9.496-4.257,9.496-9.51
		S20.246,5.49,15,5.49 M14.997,22.73c-4.272,0-7.735-3.465-7.735-7.734c0-4.274,3.463-7.737,7.735-7.737
		c4.273,0,7.735,3.463,7.735,7.737C22.732,19.266,19.271,22.73,14.997,22.73"/>
</g>
</svg>
