<?xml version="1.0" encoding="utf-8"?>
<!-- Generator: Adobe Illustrator 16.0.0, SVG Export Plug-In . SVG Version: 6.00 Build 0)  -->
<!DOCTYPE svg PUBLIC "-//W3C//DTD SVG 1.1//EN" "http://www.w3.org/Graphics/SVG/1.1/DTD/svg11.dtd">
<svg version="1.1" id="图层_1" xmlns="http://www.w3.org/2000/svg" xmlns:xlink="http://www.w3.org/1999/xlink" x="0px" y="0px"
	 width="30px" height="30px" viewBox="0 0 30 30" enable-background="new 0 0 30 30" xml:space="preserve">
<g>
	<path fill="#585757" d="M26.59,7.811c-0.852,0.378-1.768,0.634-2.73,0.749c0.98-0.589,1.736-1.521,2.092-2.631
		c-0.92,0.545-1.938,0.939-3.02,1.154c-0.869-0.926-2.105-1.502-3.473-1.502c-2.627,0-4.756,2.129-4.756,4.756
		c0,0.371,0.041,0.734,0.123,1.082c-3.953-0.197-7.457-2.09-9.803-4.969C4.615,7.153,4.379,7.971,4.379,8.842
		c0,1.649,0.84,3.106,2.117,3.959c-0.781-0.025-1.514-0.239-2.154-0.595c-0.002,0.02-0.002,0.039-0.002,0.06
		c0,2.304,1.641,4.226,3.816,4.663c-0.4,0.109-0.82,0.166-1.254,0.166c-0.305,0-0.604-0.029-0.895-0.084
		c0.605,1.889,2.361,3.264,4.443,3.301c-1.627,1.277-3.678,2.037-5.906,2.037c-0.385,0-0.764-0.021-1.135-0.066
		c2.105,1.35,4.605,2.137,7.289,2.137c8.748,0,13.533-7.246,13.533-13.531c0-0.206-0.006-0.411-0.016-0.615
		C25.146,9.602,25.953,8.765,26.59,7.811"/>
</g>
</svg>
