<?xml version="1.0" encoding="utf-8"?>
<!-- Generator: Adobe Illustrator 16.0.0, SVG Export Plug-In . SVG Version: 6.00 Build 0)  -->
<!DOCTYPE svg PUBLIC "-//W3C//DTD SVG 1.1//EN" "http://www.w3.org/Graphics/SVG/1.1/DTD/svg11.dtd">
<svg version="1.1" id="图层_1" xmlns="http://www.w3.org/2000/svg" xmlns:xlink="http://www.w3.org/1999/xlink" x="0px" y="0px"
	 width="30px" height="30px" viewBox="0 0 30 30" enable-background="new 0 0 30 30" xml:space="preserve">
<g>
	<path fill="#4F4D4D" d="M8.426,5.581h13.15c1.605,0,2.92,1.295,2.92,2.877v13.084c0,1.582-1.314,2.877-2.92,2.877H8.426
		c-1.607,0-2.922-1.295-2.922-2.877V8.458C5.504,6.876,6.818,5.581,8.426,5.581"/>
	<path fill="#FDFDFD" d="M14.646,14.067c0.012-0.011,0.023-0.021,0.037-0.033c0.012-0.012,0.025-0.023,0.037-0.033
		c0.014-0.013,0.025-0.023,0.039-0.035c0.014-0.01,0.025-0.022,0.039-0.033c0.014-0.012,0.027-0.022,0.041-0.033
		c0.014-0.012,0.027-0.023,0.041-0.034c0.016-0.011,0.029-0.022,0.043-0.034c0.016-0.011,0.029-0.021,0.043-0.033
		c0.016-0.012,0.031-0.022,0.047-0.033c0.014-0.012,0.029-0.023,0.045-0.034s0.031-0.022,0.047-0.034
		c0.016-0.011,0.031-0.021,0.049-0.033c0.016-0.012,0.033-0.022,0.049-0.033c0.018-0.012,0.033-0.023,0.051-0.035
		c0.018-0.01,0.035-0.022,0.053-0.033c0.018-0.012,0.035-0.021,0.055-0.033c0.018-0.012,0.035-0.023,0.055-0.034
		s0.037-0.022,0.057-0.034c0.02-0.011,0.041-0.021,0.061-0.033s0.039-0.022,0.059-0.033c0.021-0.012,0.045-0.023,0.064-0.034
		c0.023-0.011,0.045-0.022,0.066-0.034c0.021-0.011,0.045-0.021,0.066-0.033c0.025-0.012,0.049-0.022,0.072-0.033
		c0.025-0.012,0.049-0.023,0.074-0.034c0.023-0.011,0.051-0.023,0.076-0.034c0.025-0.012,0.053-0.021,0.08-0.033
		s0.057-0.023,0.086-0.033c0.027-0.012,0.059-0.023,0.088-0.035c0.031-0.011,0.063-0.022,0.094-0.032
		c0.033-0.013,0.068-0.023,0.1-0.034c0.037-0.012,0.072-0.023,0.109-0.034c0.037-0.012,0.076-0.022,0.115-0.034
		c0.043-0.011,0.086-0.022,0.129-0.033c0.047-0.012,0.094-0.022,0.141-0.033c0.053-0.012,0.107-0.023,0.16-0.034
		c0.064-0.013,0.129-0.022,0.195-0.034c0.082-0.013,0.164-0.023,0.25-0.033c0.209-0.023,0.422-0.035,0.639-0.037h0.031
		c0.205,0.002,0.41,0.014,0.609,0.037c0.08,0.01,0.16,0.021,0.24,0.033c0.064,0.012,0.127,0.021,0.189,0.034
		c0.051,0.011,0.104,0.022,0.154,0.034c0.047,0.011,0.094,0.021,0.139,0.033c0.041,0.011,0.084,0.022,0.125,0.033
		c0.037,0.012,0.076,0.022,0.113,0.034c0.035,0.011,0.07,0.022,0.105,0.034c0.033,0.011,0.066,0.021,0.1,0.034
		c0.031,0.01,0.063,0.021,0.094,0.032c0.027,0.012,0.059,0.023,0.088,0.035c0.027,0.01,0.055,0.021,0.084,0.033
		c0.025,0.012,0.053,0.021,0.08,0.033c0.023,0.011,0.051,0.023,0.074,0.034c0.025,0.011,0.051,0.022,0.074,0.034
		c0.023,0.011,0.047,0.021,0.07,0.033s0.045,0.022,0.068,0.033c0.021,0.012,0.043,0.023,0.064,0.034s0.043,0.022,0.064,0.034
		c0.02,0.011,0.041,0.021,0.061,0.033c0.021,0.012,0.041,0.022,0.061,0.033c0.02,0.012,0.037,0.023,0.057,0.034
		S20.98,13.517,21,13.528c0.018,0.012,0.035,0.021,0.055,0.033c0.018,0.011,0.035,0.023,0.053,0.033
		c0.016,0.012,0.035,0.023,0.051,0.035c0.018,0.011,0.033,0.021,0.051,0.033c0.016,0.012,0.031,0.022,0.049,0.033
		c0.016,0.012,0.031,0.023,0.047,0.034s0.031,0.022,0.047,0.034c0.016,0.011,0.029,0.021,0.045,0.033s0.031,0.022,0.045,0.033
		c0.014,0.012,0.029,0.023,0.043,0.034s0.029,0.022,0.043,0.034c0.014,0.011,0.027,0.021,0.041,0.033
		c0.014,0.011,0.027,0.023,0.041,0.033c0.012,0.012,0.025,0.022,0.039,0.035c0.012,0.01,0.025,0.021,0.039,0.033
		c0.012,0.012,0.023,0.022,0.037,0.033c0.012,0.011,0.023,0.023,0.037,0.034c0.012,0.011,0.023,0.022,0.035,0.034
		c0.012,0.011,0.023,0.021,0.035,0.033s0.023,0.022,0.035,0.033c0.012,0.012,0.023,0.023,0.033,0.034
		c0.012,0.011,0.021,0.022,0.033,0.034c0.012,0.011,0.023,0.021,0.033,0.033c0.012,0.012,0.021,0.022,0.031,0.033
		c0.01,0.012,0.021,0.023,0.031,0.035c0.01,0.01,0.02,0.021,0.031,0.032c0.01,0.013,0.02,0.022,0.029,0.034
		c0.01,0.011,0.02,0.023,0.029,0.033c0.01,0.012,0.02,0.022,0.029,0.035c0.01,0.011,0.018,0.021,0.027,0.033s0.02,0.022,0.027,0.033
		c0.01,0.012,0.02,0.023,0.027,0.034s0.018,0.022,0.025,0.034c0.01,0.011,0.018,0.021,0.027,0.033
		c0.008,0.012,0.016,0.022,0.025,0.033c0.008,0.012,0.016,0.023,0.023,0.034s0.018,0.022,0.025,0.034
		c0.008,0.011,0.016,0.021,0.021,0.033c0.01,0.011,0.018,0.023,0.023,0.033c0.008,0.012,0.016,0.022,0.023,0.035
		c0.008,0.01,0.016,0.021,0.021,0.032c0.008,0.013,0.016,0.023,0.023,0.034c0.006,0.012,0.014,0.023,0.02,0.034
		c0.008,0.011,0.014,0.022,0.021,0.034c0.006,0.011,0.014,0.021,0.02,0.033c0.008,0.011,0.014,0.022,0.021,0.033l0.018,0.034
		c0.006,0.011,0.014,0.022,0.02,0.034c0.006,0.011,0.012,0.021,0.018,0.033c0.006,0.011,0.012,0.022,0.018,0.033
		c0.006,0.012,0.014,0.022,0.02,0.035c0.004,0.01,0.01,0.021,0.016,0.032c0.006,0.013,0.012,0.022,0.018,0.034
		c0.006,0.011,0.01,0.023,0.016,0.034s0.01,0.022,0.016,0.034c0.004,0.011,0.012,0.021,0.016,0.033
		c0.006,0.01,0.01,0.022,0.014,0.033c0.006,0.012,0.01,0.021,0.016,0.034c0.004,0.011,0.01,0.022,0.014,0.033
		c0.006,0.012,0.01,0.022,0.014,0.034c0.004,0.011,0.01,0.022,0.014,0.033c0.004,0.012,0.01,0.022,0.014,0.034
		c0.004,0.011,0.008,0.022,0.012,0.033c0.004,0.013,0.008,0.022,0.012,0.034c0.004,0.011,0.008,0.023,0.014,0.033
		c0.002,0.012,0.006,0.022,0.01,0.033c0.004,0.013,0.008,0.023,0.012,0.034c0.004,0.013,0.006,0.023,0.01,0.034
		c0.004,0.012,0.006,0.021,0.012,0.034c0.002,0.011,0.006,0.022,0.01,0.032c0.002,0.013,0.006,0.023,0.008,0.035
		c0.004,0.011,0.006,0.022,0.01,0.033c0.002,0.012,0.006,0.022,0.008,0.034c0.004,0.011,0.006,0.022,0.01,0.033
		c0.002,0.012,0.006,0.022,0.008,0.034c0.002,0.011,0.006,0.021,0.008,0.033s0.004,0.022,0.006,0.035
		c0.002,0.01,0.006,0.021,0.008,0.032c0.002,0.013,0.004,0.023,0.008,0.034c0.002,0.011,0.002,0.021,0.004,0.034
		c0.004,0.011,0.004,0.022,0.006,0.032c0.002,0.013,0.004,0.023,0.006,0.035c0.002,0.01,0.004,0.022,0.006,0.033
		c0,0.012,0.002,0.022,0.004,0.034C22.998,16.372,23,16.384,23,16.395c0.002,0.011,0.004,0.022,0.004,0.034
		c0.002,0.011,0.002,0.022,0.004,0.033c0.002,0.012,0.004,0.022,0.004,0.033c0.002,0.012,0.002,0.023,0.004,0.034
		c0,0.011,0.002,0.022,0.002,0.034c0,0.011,0.002,0.021,0.002,0.033c0.002,0.012,0.002,0.022,0.002,0.033
		c0,0.013,0.002,0.023,0.002,0.035c0,0.01,0.002,0.022,0.002,0.033c0,0.012,0,0.021,0,0.034c0,0.011,0,0.022,0,0.033v0.01V16.8
		v0.033v0.006c0,0.01,0,0.019,0,0.027c0,0.012,0,0.023,0,0.034c-0.002,0.011-0.002,0.022-0.002,0.034
		c0,0.011-0.002,0.021-0.002,0.033s-0.002,0.022-0.002,0.033c-0.002,0.012-0.002,0.023-0.002,0.034
		c-0.002,0.011-0.002,0.023-0.004,0.034c-0.002,0.012-0.002,0.021-0.004,0.034c-0.002,0.011-0.004,0.022-0.004,0.032
		c-0.002,0.013-0.004,0.023-0.004,0.035c-0.002,0.011-0.004,0.022-0.006,0.033c0,0.012-0.002,0.022-0.004,0.033
		c-0.002,0.012-0.004,0.023-0.006,0.034s-0.004,0.022-0.006,0.034c-0.002,0.011-0.004,0.021-0.006,0.033s-0.004,0.022-0.008,0.033
		c-0.002,0.012-0.004,0.023-0.006,0.034c-0.004,0.011-0.006,0.022-0.008,0.034c-0.002,0.011-0.006,0.021-0.008,0.034
		c-0.004,0.011-0.006,0.022-0.008,0.032c-0.004,0.013-0.006,0.023-0.01,0.035c-0.004,0.01-0.006,0.021-0.01,0.033
		c-0.002,0.012-0.006,0.021-0.01,0.033c-0.002,0.012-0.006,0.023-0.01,0.034c-0.002,0.011-0.006,0.022-0.01,0.034
		c-0.004,0.011-0.008,0.021-0.012,0.033s-0.006,0.022-0.01,0.033c-0.004,0.012-0.008,0.023-0.012,0.034s-0.008,0.022-0.014,0.034
		c-0.004,0.011-0.008,0.021-0.012,0.033s-0.008,0.022-0.012,0.033c-0.006,0.012-0.01,0.023-0.014,0.034
		c-0.006,0.011-0.01,0.022-0.016,0.034c-0.004,0.012-0.008,0.021-0.014,0.033c-0.004,0.012-0.01,0.023-0.014,0.033
		c-0.006,0.012-0.01,0.023-0.016,0.035c-0.006,0.011-0.01,0.021-0.016,0.033c-0.004,0.012-0.01,0.022-0.016,0.033
		c-0.006,0.012-0.012,0.023-0.016,0.034c-0.006,0.011-0.012,0.022-0.018,0.034c-0.006,0.011-0.012,0.021-0.018,0.033
		s-0.012,0.022-0.018,0.033c-0.006,0.012-0.012,0.023-0.018,0.034s-0.012,0.022-0.02,0.034c-0.006,0.011-0.012,0.021-0.02,0.033
		c-0.006,0.012-0.012,0.023-0.018,0.033c-0.008,0.012-0.014,0.023-0.02,0.035c-0.008,0.01-0.014,0.021-0.021,0.033
		c-0.006,0.012-0.014,0.022-0.02,0.033c-0.008,0.012-0.016,0.023-0.021,0.034c-0.008,0.011-0.016,0.022-0.023,0.034
		c-0.006,0.011-0.014,0.021-0.021,0.033s-0.014,0.022-0.023,0.033c-0.006,0.012-0.014,0.023-0.021,0.034s-0.016,0.022-0.023,0.034
		c-0.008,0.011-0.016,0.021-0.023,0.033s-0.018,0.022-0.025,0.033c-0.008,0.012-0.016,0.023-0.025,0.035
		c-0.008,0.01-0.016,0.021-0.025,0.033c-0.008,0.012-0.016,0.021-0.025,0.033s-0.018,0.023-0.025,0.034
		c-0.01,0.011-0.02,0.022-0.027,0.034c-0.01,0.011-0.018,0.021-0.027,0.033s-0.02,0.022-0.027,0.033
		c-0.012,0.012-0.02,0.023-0.029,0.034s-0.02,0.022-0.029,0.034c-0.01,0.011-0.02,0.021-0.029,0.033s-0.02,0.022-0.029,0.033
		c-0.01,0.012-0.021,0.023-0.031,0.034s-0.02,0.022-0.029,0.033c-0.012,0.013-0.021,0.022-0.031,0.034
		c-0.012,0.011-0.021,0.023-0.033,0.033c-0.01,0.012-0.021,0.022-0.031,0.035c-0.012,0.011-0.021,0.021-0.033,0.032
		c-0.012,0.013-0.021,0.023-0.033,0.034c-0.012,0.012-0.023,0.023-0.035,0.034s-0.023,0.022-0.033,0.034
		c-0.012,0.011-0.023,0.021-0.035,0.033s-0.023,0.022-0.037,0.033c-0.012,0.012-0.023,0.022-0.035,0.034
		c-0.012,0.011-0.025,0.022-0.037,0.033c-0.012,0.012-0.025,0.022-0.037,0.034c-0.014,0.011-0.025,0.023-0.037,0.033
		c-0.014,0.012-0.027,0.022-0.039,0.035c-0.014,0.01-0.027,0.021-0.039,0.032c-0.014,0.013-0.027,0.022-0.041,0.034
		c-0.012,0.011-0.027,0.023-0.039,0.034c-0.014,0.011-0.029,0.022-0.043,0.034c-0.012,0.011-0.027,0.021-0.041,0.033
		s-0.027,0.022-0.041,0.033c-0.016,0.012-0.029,0.023-0.043,0.034c-0.016,0.011-0.031,0.022-0.045,0.033
		c-0.016,0.012-0.029,0.022-0.043,0.034c-0.016,0.011-0.031,0.022-0.047,0.033l-0.016,0.013l0.006,0.021l0.012,0.033l0.01,0.034
		l0.01,0.033l0.012,0.035l0.01,0.033l0.01,0.033l0.012,0.034l0.01,0.033l0.01,0.034l0.012,0.033l0.01,0.034l0.01,0.033l0.01,0.034
		l0.012,0.033l0.01,0.035l0.01,0.032l0.012,0.034l0.01,0.034l0.01,0.032l0.01,0.035l0.012,0.033l0.01,0.034l0.01,0.033l0.01,0.034
		l0.012,0.033l0.01,0.035l0.01,0.032l0.01,0.034l0.012,0.034l0.01,0.032l0.01,0.035l0.01,0.033l0.012,0.034l0.01,0.033l0.01,0.034
		l0.01,0.033l0.012,0.033l0.01,0.034l0.01,0.034l0.012,0.033l0.006,0.024l-0.045-0.024l-0.061-0.033l-0.064-0.034l-0.061-0.034
		l-0.064-0.033l-0.061-0.033l-0.064-0.034l-0.061-0.033l-0.064-0.034l-0.061-0.033l-0.064-0.035l-0.061-0.032l-0.064-0.034
		l-0.061-0.034l-0.063-0.032l-0.063-0.035l-0.064-0.033l-0.061-0.034l-0.063-0.033l-0.063-0.034l-0.063-0.033l-0.063-0.035
		l-0.063-0.032l-0.063-0.034l-0.063-0.034l-0.01-0.005l-0.021,0.005c-0.045,0.011-0.092,0.023-0.139,0.034
		c-0.045,0.012-0.092,0.023-0.139,0.034s-0.096,0.022-0.143,0.032c-0.051,0.013-0.102,0.023-0.15,0.035
		c-0.055,0.012-0.109,0.022-0.162,0.033c-0.061,0.012-0.121,0.023-0.182,0.034c-0.072,0.013-0.146,0.024-0.219,0.033
		c-0.117,0.016-0.236,0.028-0.354,0.034c-0.064,0.003-0.129,0.005-0.193,0.005c-0.084,0-0.166-0.001-0.25-0.005
		c-0.143-0.006-0.283-0.019-0.424-0.034c-0.084-0.009-0.166-0.021-0.246-0.033c-0.064-0.011-0.129-0.022-0.191-0.034
		c-0.053-0.011-0.107-0.021-0.158-0.033c-0.049-0.011-0.096-0.022-0.141-0.035c-0.045-0.01-0.086-0.021-0.129-0.032
		c-0.037-0.011-0.076-0.022-0.115-0.034c-0.035-0.011-0.072-0.021-0.107-0.034c-0.033-0.011-0.066-0.022-0.1-0.032
		c-0.031-0.012-0.063-0.023-0.094-0.035c-0.029-0.01-0.059-0.021-0.088-0.033s-0.057-0.022-0.086-0.034
		c-0.025-0.011-0.053-0.022-0.08-0.033c-0.025-0.011-0.051-0.022-0.076-0.034c-0.023-0.011-0.049-0.021-0.072-0.033
		c-0.025-0.012-0.047-0.022-0.072-0.034c-0.021-0.011-0.045-0.022-0.068-0.033c-0.02-0.011-0.043-0.022-0.064-0.034
		c-0.021-0.011-0.041-0.021-0.063-0.033s-0.041-0.022-0.061-0.033c-0.021-0.013-0.039-0.023-0.061-0.035
		c-0.018-0.01-0.037-0.022-0.057-0.033c-0.018-0.012-0.037-0.021-0.055-0.034c-0.02-0.011-0.037-0.022-0.055-0.033
		c-0.018-0.012-0.035-0.022-0.053-0.034c-0.016-0.011-0.033-0.021-0.051-0.033c-0.016-0.012-0.033-0.022-0.049-0.034
		c-0.018-0.011-0.033-0.022-0.049-0.033s-0.031-0.022-0.047-0.034c-0.016-0.011-0.029-0.021-0.045-0.033s-0.029-0.022-0.045-0.033
		c-0.016-0.012-0.029-0.023-0.043-0.034s-0.029-0.023-0.043-0.034c-0.014-0.012-0.027-0.021-0.041-0.034
		c-0.014-0.011-0.027-0.022-0.041-0.032c-0.014-0.013-0.025-0.023-0.039-0.035c-0.014-0.01-0.025-0.021-0.039-0.033
		s-0.025-0.022-0.037-0.034c-0.014-0.011-0.025-0.022-0.037-0.033s-0.023-0.022-0.035-0.034c-0.012-0.011-0.025-0.021-0.037-0.033
		c-0.01-0.012-0.023-0.022-0.033-0.033c-0.012-0.012-0.021-0.023-0.035-0.034c-0.01-0.011-0.021-0.022-0.031-0.034
		c-0.012-0.011-0.021-0.021-0.033-0.034c-0.01-0.011-0.021-0.021-0.031-0.032c-0.01-0.012-0.02-0.023-0.031-0.035
		c-0.01-0.01-0.02-0.021-0.029-0.033s-0.02-0.021-0.029-0.034c-0.01-0.011-0.02-0.022-0.029-0.033s-0.02-0.022-0.029-0.034
		c-0.008-0.011-0.018-0.021-0.027-0.033c-0.008-0.012-0.018-0.022-0.027-0.033c-0.008-0.012-0.016-0.023-0.025-0.034
		s-0.018-0.022-0.025-0.034c-0.01-0.011-0.018-0.021-0.027-0.033c-0.008-0.012-0.016-0.022-0.023-0.033
		c-0.01-0.013-0.018-0.023-0.025-0.034s-0.014-0.022-0.021-0.034c-0.01-0.012-0.018-0.021-0.025-0.033
		c-0.006-0.012-0.014-0.023-0.021-0.033c-0.008-0.012-0.016-0.023-0.021-0.035c-0.008-0.011-0.016-0.021-0.023-0.033
		c-0.006-0.012-0.014-0.022-0.02-0.033c-0.008-0.012-0.014-0.023-0.021-0.034s-0.014-0.022-0.02-0.034
		c-0.008-0.011-0.014-0.021-0.021-0.033c-0.006-0.012-0.012-0.022-0.02-0.033c-0.006-0.012-0.012-0.023-0.018-0.034
		s-0.014-0.022-0.02-0.034c-0.006-0.011-0.012-0.021-0.018-0.033s-0.012-0.023-0.018-0.033c-0.006-0.012-0.012-0.023-0.018-0.035
		c-0.004-0.01-0.01-0.021-0.016-0.033s-0.012-0.022-0.016-0.033c-0.006-0.012-0.012-0.023-0.016-0.034
		c-0.008-0.011-0.012-0.022-0.018-0.034c-0.004-0.011-0.01-0.021-0.014-0.033c-0.006-0.012-0.01-0.022-0.014-0.033
		c-0.006-0.012-0.012-0.023-0.016-0.034s-0.01-0.022-0.014-0.034c-0.004-0.011-0.008-0.021-0.014-0.033
		c-0.004-0.012-0.008-0.022-0.012-0.033c-0.006-0.012-0.01-0.023-0.014-0.035c-0.004-0.01-0.008-0.021-0.012-0.033
		s-0.008-0.021-0.012-0.033s-0.008-0.023-0.012-0.034s-0.008-0.022-0.012-0.034c-0.002-0.011-0.006-0.021-0.01-0.033
		s-0.008-0.022-0.012-0.033c-0.004-0.012-0.006-0.023-0.01-0.034c-0.002-0.011-0.006-0.022-0.01-0.034
		c-0.002-0.011-0.006-0.021-0.008-0.033c-0.004-0.012-0.008-0.022-0.01-0.033c-0.004-0.012-0.006-0.023-0.008-0.034
		c-0.004-0.011-0.006-0.022-0.01-0.034c-0.002-0.012-0.004-0.021-0.006-0.033c-0.004-0.012-0.006-0.023-0.008-0.033
		c-0.002-0.012-0.006-0.022-0.008-0.035c-0.002-0.01-0.004-0.021-0.008-0.032c-0.002-0.013-0.004-0.023-0.006-0.034l-0.006-0.034
		c-0.002-0.011-0.004-0.022-0.006-0.034c-0.002-0.011-0.004-0.021-0.006-0.033l-0.004-0.033c-0.002-0.012-0.004-0.023-0.004-0.034
		c-0.004-0.011-0.004-0.022-0.006-0.034c-0.002-0.011-0.004-0.021-0.004-0.033c-0.002-0.011-0.002-0.022-0.004-0.033
		c-0.002-0.012-0.002-0.022-0.004-0.035c0-0.01-0.002-0.021-0.002-0.032c-0.002-0.013-0.002-0.022-0.004-0.034
		c0-0.011,0-0.023-0.002-0.034c0-0.011-0.002-0.022-0.002-0.034c0-0.011-0.002-0.021-0.002-0.033l-0.002-0.033V16.9
		c0-0.011,0-0.022,0-0.034l-0.002-0.033c0-0.011,0-0.021,0-0.033l0,0c0-0.012,0-0.022,0-0.034c0-0.011,0-0.022,0.002-0.033
		c0-0.013,0-0.022,0-0.034c0-0.011,0-0.023,0-0.033c0.002-0.012,0.002-0.022,0.002-0.035c0.002-0.011,0.002-0.021,0.002-0.033
		s0.002-0.022,0.002-0.033c0.002-0.012,0.002-0.023,0.002-0.034c0.002-0.011,0.002-0.022,0.004-0.034
		c0-0.011,0.002-0.021,0.002-0.033c0.002-0.011,0.004-0.022,0.004-0.033c0.002-0.012,0.002-0.023,0.004-0.034
		s0.002-0.022,0.004-0.033c0.002-0.012,0.004-0.022,0.006-0.034c0.002-0.011,0.002-0.023,0.004-0.033
		c0.002-0.012,0.004-0.022,0.006-0.035c0.002-0.01,0.004-0.021,0.004-0.032c0.002-0.013,0.004-0.023,0.006-0.034
		s0.004-0.021,0.006-0.034c0.002-0.011,0.006-0.022,0.008-0.032c0.002-0.013,0.004-0.023,0.006-0.035
		c0.004-0.012,0.006-0.022,0.008-0.033c0.002-0.012,0.006-0.022,0.008-0.034c0.002-0.011,0.004-0.022,0.008-0.033
		c0.002-0.012,0.006-0.022,0.008-0.034c0.002-0.011,0.006-0.022,0.008-0.033c0.004-0.012,0.008-0.022,0.01-0.035
		c0.004-0.01,0.006-0.021,0.01-0.032c0.004-0.013,0.006-0.022,0.01-0.034c0.002-0.011,0.006-0.021,0.01-0.034
		c0.002-0.011,0.008-0.021,0.012-0.034c0.002-0.011,0.006-0.021,0.01-0.033c0.004-0.01,0.008-0.022,0.01-0.033
		c0.004-0.012,0.008-0.021,0.012-0.034c0.004-0.011,0.01-0.022,0.014-0.033c0.004-0.012,0.008-0.022,0.012-0.034
		c0.004-0.011,0.008-0.022,0.012-0.033c0.004-0.012,0.008-0.022,0.014-0.034c0.004-0.011,0.01-0.022,0.014-0.033l0.014-0.034
		c0.004-0.011,0.01-0.023,0.014-0.033c0.006-0.012,0.01-0.022,0.016-0.033c0.004-0.012,0.01-0.023,0.014-0.034
		c0.006-0.011,0.012-0.023,0.016-0.034c0.006-0.012,0.012-0.021,0.018-0.034c0.004-0.011,0.01-0.022,0.016-0.032
		c0.006-0.013,0.012-0.023,0.016-0.035c0.006-0.011,0.012-0.022,0.018-0.033c0.006-0.012,0.012-0.022,0.018-0.033
		c0.006-0.012,0.012-0.023,0.018-0.034s0.014-0.022,0.02-0.034c0.006-0.011,0.012-0.022,0.018-0.033
		c0.008-0.012,0.014-0.022,0.02-0.033c0.008-0.012,0.014-0.023,0.021-0.034c0.006-0.011,0.012-0.022,0.02-0.034
		c0.008-0.011,0.014-0.021,0.021-0.034c0.006-0.011,0.014-0.022,0.02-0.032c0.008-0.013,0.016-0.023,0.023-0.035
		c0.006-0.01,0.014-0.022,0.021-0.033c0.008-0.012,0.016-0.022,0.023-0.033c0.008-0.012,0.016-0.023,0.023-0.034
		s0.016-0.022,0.023-0.034c0.008-0.011,0.016-0.021,0.025-0.033c0.008-0.012,0.016-0.022,0.023-0.033
		c0.01-0.012,0.018-0.023,0.025-0.034s0.018-0.022,0.027-0.034c0.008-0.011,0.016-0.021,0.025-0.033
		c0.008-0.012,0.018-0.022,0.027-0.033c0.01-0.013,0.018-0.023,0.027-0.035c0.01-0.01,0.02-0.022,0.029-0.033
		c0.008-0.012,0.02-0.021,0.029-0.034c0.008-0.011,0.018-0.022,0.029-0.032c0.01-0.012,0.02-0.023,0.029-0.035
		c0.012-0.011,0.021-0.021,0.031-0.033s0.021-0.022,0.031-0.033c0.012-0.012,0.021-0.023,0.033-0.034
		c0.01-0.011,0.021-0.022,0.031-0.034c0.012-0.011,0.023-0.021,0.035-0.033s0.023-0.022,0.033-0.033
		c0.012-0.012,0.025-0.023,0.037-0.034S14.635,14.078,14.646,14.067 M14.809,12.331c0.426,0,0.709-0.279,0.709-0.699
		s-0.283-0.695-0.709-0.695s-0.852,0.275-0.852,0.695S14.383,12.331,14.809,12.331 M10.842,10.937c-0.424,0-0.852,0.275-0.852,0.695
		s0.428,0.699,0.852,0.699c0.426,0,0.707-0.279,0.707-0.699S11.268,10.937,10.842,10.937 M19.768,14.985
		c-0.279,0-0.563,0.28-0.563,0.559c0,0.281,0.283,0.558,0.563,0.558c0.424,0,0.709-0.276,0.709-0.558
		C20.477,15.266,20.191,14.985,19.768,14.985 M16.65,14.985c-0.281,0-0.566,0.28-0.566,0.559c0,0.281,0.285,0.558,0.566,0.558
		c0.43,0,0.709-0.276,0.709-0.558C17.359,15.266,17.08,14.985,16.65,14.985 M11.916,8.605c0.242-0.027,0.49-0.042,0.74-0.043h0.057
		c0.252,0.001,0.5,0.016,0.744,0.043c0.1,0.011,0.197,0.024,0.295,0.04c0.076,0.012,0.152,0.025,0.229,0.039
		c0.064,0.013,0.129,0.025,0.191,0.04c0.059,0.013,0.113,0.026,0.17,0.04c0.051,0.013,0.102,0.025,0.152,0.039
		c0.047,0.013,0.092,0.027,0.139,0.039c0.045,0.014,0.088,0.026,0.131,0.041c0.039,0.013,0.078,0.025,0.119,0.039
		c0.037,0.014,0.076,0.026,0.113,0.039c0.035,0.014,0.072,0.027,0.107,0.041c0.033,0.013,0.066,0.025,0.102,0.039
		c0.033,0.014,0.064,0.026,0.098,0.041c0.029,0.012,0.061,0.025,0.092,0.039c0.029,0.012,0.061,0.025,0.09,0.039
		s0.057,0.026,0.084,0.04c0.029,0.013,0.055,0.026,0.082,0.039s0.053,0.027,0.08,0.04c0.025,0.014,0.051,0.026,0.078,0.04
		c0.023,0.013,0.049,0.026,0.072,0.039c0.025,0.013,0.049,0.026,0.072,0.04c0.023,0.013,0.047,0.025,0.07,0.04
		c0.021,0.013,0.045,0.026,0.066,0.039c0.021,0.014,0.043,0.026,0.066,0.04c0.021,0.013,0.043,0.027,0.064,0.04
		c0.02,0.013,0.041,0.026,0.061,0.04c0.021,0.013,0.041,0.025,0.061,0.039c0.02,0.013,0.039,0.027,0.059,0.039
		c0.02,0.014,0.039,0.026,0.057,0.041c0.02,0.013,0.037,0.025,0.057,0.039c0.018,0.013,0.035,0.026,0.055,0.039
		c0.018,0.014,0.035,0.026,0.053,0.041c0.018,0.013,0.035,0.025,0.051,0.039c0.018,0.014,0.035,0.026,0.051,0.039
		c0.018,0.014,0.033,0.026,0.051,0.041c0.016,0.012,0.031,0.025,0.047,0.039s0.033,0.026,0.049,0.039
		c0.014,0.014,0.029,0.027,0.045,0.04s0.031,0.026,0.045,0.04c0.016,0.014,0.029,0.026,0.045,0.039
		c0.014,0.014,0.029,0.027,0.043,0.04s0.027,0.026,0.041,0.04c0.016,0.014,0.029,0.025,0.043,0.039s0.027,0.027,0.039,0.04
		c0.014,0.013,0.027,0.026,0.041,0.04c0.012,0.013,0.025,0.025,0.037,0.04c0.014,0.013,0.027,0.026,0.039,0.039
		c0.012,0.014,0.025,0.026,0.037,0.04c0.012,0.013,0.023,0.025,0.035,0.039s0.023,0.026,0.037,0.039
		c0.01,0.015,0.021,0.027,0.035,0.041c0.01,0.013,0.021,0.026,0.031,0.039c0.014,0.014,0.023,0.026,0.035,0.041
		c0.01,0.013,0.021,0.025,0.031,0.039c0.012,0.012,0.023,0.026,0.033,0.039c0.01,0.014,0.02,0.026,0.029,0.041
		c0.012,0.012,0.021,0.025,0.031,0.038s0.021,0.027,0.029,0.04c0.01,0.014,0.02,0.026,0.031,0.04
		c0.008,0.013,0.018,0.026,0.027,0.039c0.01,0.015,0.02,0.027,0.027,0.04c0.01,0.014,0.02,0.027,0.027,0.04
		c0.01,0.013,0.018,0.026,0.027,0.04s0.018,0.025,0.025,0.039c0.01,0.013,0.018,0.027,0.027,0.04
		c0.008,0.013,0.016,0.026,0.023,0.04c0.008,0.013,0.018,0.025,0.025,0.039s0.016,0.027,0.023,0.04s0.016,0.026,0.023,0.04
		c0.008,0.013,0.014,0.025,0.021,0.039s0.016,0.027,0.023,0.039c0.006,0.014,0.014,0.027,0.02,0.041
		c0.008,0.013,0.016,0.025,0.021,0.039c0.008,0.014,0.014,0.026,0.021,0.039c0.008,0.014,0.014,0.027,0.02,0.041
		c0.006,0.013,0.014,0.025,0.02,0.039c0.008,0.014,0.014,0.026,0.02,0.039c0.006,0.014,0.012,0.027,0.018,0.04
		s0.014,0.027,0.02,0.04c0.004,0.014,0.01,0.026,0.016,0.04c0.006,0.013,0.012,0.026,0.018,0.039s0.012,0.027,0.016,0.04
		c0.006,0.014,0.012,0.025,0.018,0.04c0.004,0.013,0.01,0.026,0.016,0.039c0.004,0.015,0.01,0.026,0.014,0.04
		c0.006,0.013,0.01,0.025,0.016,0.04c0.004,0.013,0.01,0.026,0.014,0.039c0.004,0.014,0.01,0.026,0.014,0.04
		c0.004,0.013,0.008,0.027,0.012,0.04c0.006,0.013,0.01,0.026,0.014,0.04c0.004,0.013,0.01,0.025,0.014,0.039
		c0.004,0.013,0.006,0.027,0.01,0.039c0.004,0.014,0.008,0.026,0.014,0.041c0.002,0.013,0.006,0.025,0.01,0.039
		s0.006,0.026,0.01,0.039c0.004,0.014,0.008,0.026,0.01,0.041c0.004,0.013,0.006,0.025,0.01,0.039s0.008,0.026,0.01,0.039
		c0.002,0.01,0.004,0.018,0.006,0.026c-0.104-0.011-0.205-0.021-0.309-0.026c-0.078-0.004-0.156-0.007-0.236-0.007
		c-0.09,0-0.18,0.003-0.27,0.007c-0.146,0.008-0.293,0.021-0.438,0.041c-0.084,0.01-0.168,0.023-0.252,0.039
		c-0.066,0.012-0.131,0.025-0.195,0.039c-0.057,0.014-0.113,0.026-0.168,0.04c-0.049,0.013-0.096,0.026-0.145,0.04
		c-0.043,0.012-0.086,0.026-0.131,0.039c-0.041,0.014-0.078,0.025-0.119,0.04c-0.037,0.013-0.074,0.026-0.111,0.04
		c-0.033,0.013-0.068,0.025-0.104,0.039c-0.031,0.013-0.064,0.027-0.096,0.04s-0.061,0.026-0.092,0.04
		c-0.029,0.013-0.059,0.025-0.088,0.04c-0.027,0.013-0.055,0.026-0.082,0.038c-0.025,0.014-0.053,0.027-0.078,0.041
		c-0.025,0.013-0.051,0.025-0.076,0.039c-0.023,0.014-0.049,0.026-0.072,0.039c-0.023,0.014-0.047,0.027-0.07,0.041
		c-0.021,0.013-0.043,0.025-0.066,0.039c-0.021,0.014-0.043,0.026-0.064,0.039c-0.021,0.015-0.041,0.027-0.063,0.041
		c-0.02,0.012-0.041,0.026-0.061,0.039c-0.02,0.014-0.039,0.026-0.061,0.041c-0.018,0.012-0.037,0.025-0.055,0.038
		c-0.02,0.013-0.037,0.027-0.055,0.04c-0.02,0.014-0.037,0.026-0.055,0.04c-0.018,0.013-0.035,0.026-0.051,0.039
		c-0.018,0.015-0.035,0.027-0.051,0.04c-0.018,0.014-0.033,0.027-0.049,0.04c-0.018,0.013-0.033,0.026-0.049,0.04
		s-0.031,0.025-0.047,0.039c-0.014,0.013-0.029,0.027-0.045,0.04c-0.014,0.013-0.029,0.026-0.045,0.04
		c-0.014,0.013-0.027,0.025-0.043,0.039c-0.014,0.013-0.027,0.027-0.041,0.04s-0.027,0.026-0.041,0.04
		c-0.014,0.013-0.025,0.025-0.041,0.039c-0.012,0.014-0.023,0.026-0.037,0.039c-0.014,0.014-0.025,0.026-0.039,0.041
		c-0.012,0.013-0.023,0.025-0.037,0.039c-0.012,0.014-0.023,0.026-0.035,0.039c-0.014,0.014-0.023,0.027-0.035,0.041
		c-0.014,0.012-0.023,0.025-0.035,0.039s-0.023,0.026-0.033,0.039c-0.012,0.014-0.021,0.027-0.033,0.04s-0.021,0.026-0.033,0.04
		c-0.01,0.014-0.021,0.026-0.031,0.039c-0.01,0.014-0.021,0.027-0.031,0.04s-0.02,0.027-0.029,0.04
		c-0.01,0.014-0.02,0.025-0.029,0.04c-0.01,0.013-0.02,0.026-0.029,0.039c-0.008,0.013-0.018,0.026-0.027,0.04
		c-0.01,0.013-0.018,0.025-0.027,0.04c-0.01,0.013-0.018,0.026-0.027,0.039c-0.008,0.014-0.016,0.026-0.025,0.04
		c-0.008,0.013-0.018,0.025-0.025,0.04c-0.008,0.013-0.018,0.026-0.025,0.038c-0.008,0.015-0.016,0.027-0.023,0.041
		c-0.008,0.013-0.016,0.027-0.023,0.039c-0.008,0.014-0.016,0.026-0.023,0.041c-0.008,0.013-0.016,0.025-0.021,0.039
		c-0.008,0.013-0.016,0.026-0.023,0.039c-0.006,0.014-0.014,0.026-0.021,0.041c-0.006,0.013-0.014,0.025-0.021,0.039
		c-0.006,0.014-0.012,0.026-0.02,0.039c-0.006,0.014-0.012,0.027-0.02,0.04c-0.006,0.013-0.014,0.026-0.02,0.039
		c-0.006,0.015-0.012,0.027-0.018,0.04c-0.008,0.014-0.014,0.027-0.02,0.04s-0.012,0.026-0.018,0.04s-0.012,0.025-0.018,0.039
		s-0.01,0.027-0.016,0.04s-0.012,0.026-0.018,0.04c-0.006,0.013-0.01,0.025-0.016,0.039s-0.01,0.027-0.014,0.04
		c-0.006,0.013-0.012,0.026-0.018,0.04c-0.004,0.013-0.008,0.025-0.014,0.039c-0.004,0.014-0.008,0.027-0.014,0.039
		c-0.004,0.014-0.01,0.027-0.014,0.041c-0.004,0.013-0.008,0.025-0.014,0.039c-0.004,0.014-0.008,0.026-0.012,0.039
		c-0.004,0.014-0.01,0.027-0.014,0.041c-0.004,0.013-0.006,0.026-0.01,0.039c-0.004,0.014-0.008,0.026-0.012,0.039
		c-0.004,0.015-0.008,0.027-0.01,0.041c-0.004,0.012-0.01,0.026-0.012,0.039c-0.004,0.014-0.008,0.026-0.01,0.041
		c-0.004,0.012-0.008,0.025-0.01,0.038c-0.004,0.013-0.006,0.027-0.01,0.04c-0.002,0.014-0.006,0.026-0.01,0.04
		c-0.002,0.013-0.004,0.026-0.008,0.039c-0.002,0.015-0.006,0.027-0.008,0.04c-0.002,0.014-0.004,0.025-0.008,0.04
		c-0.002,0.013-0.004,0.026-0.006,0.039c-0.002,0.014-0.006,0.026-0.008,0.04c-0.002,0.013-0.004,0.027-0.006,0.04
		s-0.004,0.026-0.006,0.04c-0.002,0.013-0.004,0.025-0.006,0.039c-0.002,0.013-0.004,0.027-0.006,0.039
		c-0.002,0.014-0.002,0.027-0.004,0.041c-0.002,0.013-0.004,0.025-0.004,0.039c-0.002,0.014-0.004,0.026-0.004,0.039
		c-0.002,0.014-0.004,0.027-0.004,0.041c-0.002,0.013-0.002,0.025-0.004,0.039s-0.002,0.026-0.004,0.039
		c0,0.014-0.002,0.027-0.002,0.041c-0.002,0.012-0.002,0.025-0.002,0.039c-0.002,0.014-0.002,0.026-0.002,0.039
		c0,0.014-0.002,0.027-0.002,0.04s0,0.026,0,0.04s0,0.026,0,0.039c-0.002,0.014-0.002,0.027-0.002,0.04v0.004
		c0,0.013,0,0.024,0,0.036c0,0.014,0,0.025,0.002,0.039c0,0.014,0,0.027,0,0.04s0.002,0.026,0.002,0.04c0,0.013,0,0.025,0.002,0.04
		c0,0.013,0,0.026,0.002,0.039c0,0.013,0.002,0.026,0.002,0.04c0.002,0.013,0.002,0.025,0.004,0.04
		c0.002,0.013,0.002,0.026,0.004,0.038c0,0.015,0.002,0.027,0.004,0.041c0,0.013,0.002,0.026,0.004,0.039
		c0.002,0.014,0.002,0.026,0.004,0.039c0.002,0.015,0.004,0.027,0.006,0.041c0.002,0.013,0.002,0.026,0.004,0.039
		c0.002,0.014,0.004,0.026,0.006,0.041c0.002,0.012,0.004,0.025,0.006,0.039s0.006,0.026,0.008,0.039
		c0.002,0.014,0.004,0.027,0.008,0.04c0.002,0.013,0.004,0.026,0.006,0.039c0.004,0.015,0.006,0.027,0.008,0.04
		c0.004,0.014,0.006,0.027,0.008,0.04c0.004,0.013,0.006,0.026,0.01,0.04s0.006,0.025,0.01,0.039
		c0.002,0.014,0.006,0.027,0.008,0.04c0.004,0.013,0.008,0.026,0.01,0.04c0.004,0.013,0.008,0.025,0.01,0.039
		c0.006,0.014,0.008,0.027,0.012,0.04s0.008,0.026,0.012,0.04c0.004,0.013,0.006,0.025,0.01,0.039l0.008,0.022
		c-0.096,0.007-0.191,0.013-0.287,0.017c-0.08,0.004-0.16,0.006-0.242,0.006c-0.078,0-0.154-0.002-0.23-0.006
		c-0.16-0.006-0.313-0.021-0.463-0.039c-0.092-0.012-0.184-0.024-0.275-0.039c-0.074-0.014-0.15-0.026-0.227-0.04
		c-0.068-0.013-0.137-0.026-0.207-0.04c-0.066-0.014-0.131-0.026-0.199-0.039c-0.064-0.014-0.129-0.027-0.195-0.04
		c-0.063-0.013-0.123-0.024-0.188-0.037l-0.076,0.037l-0.08,0.04l-0.08,0.039l-0.08,0.04l-0.08,0.04l-0.08,0.039l-0.08,0.039
		l-0.08,0.041L9.98,18.134L9.9,18.173l-0.08,0.041l-0.08,0.039l-0.08,0.039l-0.082,0.041l-0.08,0.039l-0.08,0.039l-0.08,0.04
		l-0.08,0.04l-0.08,0.039l-0.08,0.04l-0.08,0.04l-0.082,0.04l-0.08,0.039l-0.08,0.04l-0.059,0.027l0.012-0.027l0.012-0.04
		l0.014-0.039l0.014-0.04l0.014-0.04l0.014-0.04l0.014-0.039l0.014-0.04l0.012-0.04l0.016-0.039l0.012-0.039l0.014-0.041
		l0.014-0.039l0.014-0.039l0.014-0.041l0.014-0.039l0.012-0.039l0.014-0.041l0.014-0.039l0.014-0.039l0.014-0.04l0.012-0.04
		l0.016-0.039l0.012-0.04l0.014-0.04l0.014-0.039l0.014-0.04l0.014-0.04l0.014-0.04l0.014-0.039l0.012-0.04l0.014-0.039l0.014-0.039
		l0.014-0.041l0.014-0.039l0.014-0.041L9.209,17.3l0.016-0.039l0.012-0.041l0.014-0.038l0.014-0.04l0.014-0.04l0.008-0.023
		c-0.008-0.005-0.016-0.011-0.023-0.016c-0.02-0.015-0.039-0.027-0.057-0.04c-0.02-0.014-0.039-0.027-0.057-0.04
		s-0.037-0.026-0.055-0.04s-0.035-0.025-0.053-0.039c-0.018-0.013-0.035-0.027-0.053-0.04s-0.035-0.026-0.051-0.04
		c-0.018-0.013-0.035-0.025-0.051-0.039c-0.018-0.014-0.033-0.027-0.051-0.04c-0.016-0.013-0.031-0.026-0.049-0.04
		c-0.016-0.013-0.033-0.025-0.047-0.039c-0.016-0.014-0.033-0.027-0.049-0.039c-0.014-0.014-0.029-0.027-0.045-0.041
		c-0.016-0.013-0.031-0.025-0.045-0.039c-0.016-0.014-0.031-0.026-0.045-0.039c-0.016-0.014-0.029-0.027-0.043-0.041
		c-0.016-0.013-0.029-0.025-0.043-0.039c-0.016-0.014-0.029-0.026-0.043-0.039C8.414,16.374,8.4,16.36,8.387,16.347
		c-0.014-0.012-0.027-0.025-0.039-0.039c-0.014-0.014-0.027-0.026-0.041-0.039c-0.012-0.014-0.025-0.027-0.037-0.04
		c-0.014-0.013-0.027-0.027-0.039-0.04c-0.014-0.014-0.025-0.026-0.037-0.04c-0.012-0.013-0.025-0.026-0.037-0.039
		s-0.023-0.026-0.035-0.04c-0.012-0.013-0.023-0.025-0.035-0.04c-0.012-0.013-0.023-0.026-0.035-0.039
		c-0.012-0.014-0.021-0.026-0.033-0.04c-0.012-0.013-0.021-0.027-0.033-0.04c-0.01-0.013-0.021-0.026-0.033-0.038
		c-0.01-0.015-0.02-0.027-0.031-0.041c-0.01-0.013-0.02-0.027-0.029-0.039c-0.012-0.014-0.021-0.026-0.031-0.041
		c-0.01-0.013-0.02-0.025-0.029-0.039c-0.01-0.013-0.02-0.026-0.029-0.039c-0.01-0.014-0.02-0.026-0.029-0.041
		c-0.008-0.013-0.018-0.025-0.027-0.039s-0.018-0.026-0.027-0.039c-0.01-0.014-0.018-0.027-0.025-0.041
		c-0.01-0.012-0.02-0.025-0.027-0.039s-0.016-0.026-0.025-0.039c-0.008-0.014-0.016-0.027-0.025-0.04
		c-0.008-0.013-0.016-0.026-0.023-0.04s-0.016-0.026-0.023-0.039c-0.008-0.014-0.016-0.027-0.023-0.04s-0.014-0.026-0.021-0.04
		s-0.016-0.025-0.023-0.039c-0.006-0.014-0.014-0.027-0.02-0.04c-0.008-0.013-0.016-0.026-0.021-0.04
		c-0.008-0.013-0.014-0.025-0.02-0.04c-0.008-0.013-0.014-0.026-0.021-0.039c-0.006-0.013-0.012-0.026-0.018-0.04
		c-0.006-0.013-0.014-0.025-0.02-0.039s-0.012-0.026-0.018-0.039c-0.006-0.015-0.012-0.027-0.02-0.041
		c-0.004-0.013-0.01-0.025-0.016-0.039S7.314,14.813,7.311,14.8c-0.006-0.015-0.012-0.027-0.018-0.041
		c-0.004-0.012-0.01-0.026-0.016-0.039c-0.004-0.014-0.01-0.026-0.014-0.041c-0.006-0.012-0.012-0.025-0.016-0.038
		s-0.01-0.027-0.014-0.04c-0.004-0.014-0.01-0.026-0.014-0.04c-0.006-0.013-0.01-0.026-0.014-0.039
		c-0.004-0.015-0.008-0.027-0.012-0.04c-0.004-0.014-0.008-0.027-0.012-0.04s-0.01-0.026-0.014-0.039
		c-0.004-0.015-0.008-0.026-0.01-0.04c-0.004-0.013-0.008-0.027-0.012-0.04s-0.006-0.026-0.01-0.04
		c-0.004-0.013-0.008-0.025-0.01-0.039c-0.004-0.013-0.008-0.027-0.01-0.04c-0.004-0.013-0.006-0.026-0.01-0.04
		c-0.002-0.013-0.006-0.025-0.008-0.039s-0.006-0.027-0.01-0.039c-0.002-0.014-0.004-0.027-0.006-0.041
		c-0.004-0.013-0.006-0.025-0.008-0.039s-0.004-0.026-0.006-0.039c-0.004-0.014-0.006-0.027-0.008-0.041
		c-0.002-0.013-0.004-0.025-0.006-0.039s-0.002-0.026-0.004-0.039c-0.002-0.014-0.006-0.027-0.008-0.04
		c0-0.013-0.002-0.027-0.004-0.04c-0.002-0.014-0.002-0.026-0.004-0.039c-0.002-0.014-0.002-0.027-0.004-0.04
		s-0.002-0.027-0.004-0.04c0-0.014-0.002-0.025-0.002-0.039c-0.002-0.014-0.002-0.027-0.004-0.04c0-0.013-0.002-0.026-0.002-0.04
		c0-0.013,0-0.025-0.002-0.04c0-0.013,0-0.026-0.002-0.039c0-0.013,0-0.026,0-0.04c0-0.013,0-0.025-0.002-0.04
		c0-0.013,0-0.026,0-0.038c0-0.008,0-0.015,0-0.021c0-0.006,0-0.014,0-0.02c0-0.013,0.002-0.027,0.002-0.039
		c0-0.014,0-0.026,0-0.041c0-0.013,0-0.025,0-0.039c0.002-0.013,0.002-0.026,0.002-0.039c0.002-0.014,0.002-0.026,0.002-0.041
		c0.002-0.013,0.002-0.025,0.002-0.039c0.002-0.014,0.002-0.026,0.004-0.039c0-0.014,0.002-0.027,0.002-0.041
		c0.002-0.012,0.002-0.025,0.004-0.038c0-0.015,0.002-0.027,0.004-0.04c0.002-0.014,0.002-0.027,0.004-0.04s0.002-0.026,0.004-0.04
		s0.004-0.026,0.006-0.039c0.002-0.014,0.004-0.027,0.006-0.04s0.004-0.026,0.006-0.04c0.002-0.013,0.004-0.025,0.006-0.039
		s0.004-0.027,0.006-0.04c0.004-0.013,0.006-0.026,0.008-0.04c0.002-0.013,0.004-0.025,0.008-0.039
		c0.002-0.014,0.006-0.027,0.008-0.039c0.002-0.014,0.006-0.027,0.008-0.041c0.004-0.013,0.006-0.025,0.01-0.039
		c0.002-0.014,0.006-0.026,0.008-0.039c0.004-0.015,0.006-0.027,0.01-0.041c0.004-0.013,0.008-0.025,0.01-0.039
		c0.004-0.014,0.008-0.026,0.012-0.039c0.002-0.015,0.006-0.027,0.01-0.041c0.004-0.012,0.008-0.026,0.012-0.039
		c0.004-0.014,0.008-0.026,0.012-0.039c0.004-0.014,0.008-0.027,0.012-0.04s0.008-0.027,0.012-0.04
		c0.004-0.014,0.01-0.026,0.014-0.04c0.004-0.013,0.01-0.026,0.014-0.039c0.004-0.015,0.01-0.027,0.014-0.04
		c0.004-0.014,0.01-0.025,0.014-0.04c0.006-0.013,0.01-0.026,0.016-0.039c0.004-0.015,0.01-0.026,0.016-0.04
		c0.006-0.013,0.01-0.027,0.016-0.04c0.004-0.013,0.01-0.026,0.016-0.039c0.006-0.014,0.012-0.026,0.018-0.04
		c0.006-0.013,0.01-0.027,0.016-0.04s0.012-0.026,0.018-0.04c0.008-0.013,0.014-0.025,0.02-0.039s0.012-0.026,0.018-0.039
		c0.006-0.014,0.014-0.026,0.02-0.041c0.006-0.013,0.012-0.025,0.02-0.039c0.006-0.014,0.014-0.026,0.02-0.039
		c0.008-0.014,0.014-0.027,0.021-0.041c0.006-0.012,0.014-0.025,0.021-0.039c0.006-0.014,0.014-0.026,0.021-0.039
		c0.006-0.014,0.016-0.027,0.021-0.04c0.008-0.013,0.016-0.026,0.023-0.04c0.006-0.014,0.016-0.026,0.023-0.039
		c0.008-0.014,0.016-0.027,0.023-0.04s0.016-0.027,0.023-0.04c0.01-0.014,0.018-0.025,0.025-0.039
		c0.01-0.014,0.018-0.027,0.025-0.04s0.018-0.026,0.027-0.04c0.008-0.013,0.018-0.025,0.027-0.04
		c0.008-0.013,0.018-0.026,0.025-0.039c0.01-0.014,0.02-0.026,0.029-0.04c0.01-0.013,0.018-0.027,0.029-0.04
		c0.008-0.013,0.018-0.026,0.027-0.038c0.01-0.015,0.021-0.027,0.031-0.041c0.01-0.013,0.02-0.027,0.031-0.039
		c0.01-0.014,0.02-0.026,0.029-0.039c0.012-0.015,0.021-0.027,0.033-0.041c0.01-0.013,0.021-0.026,0.033-0.039
		c0.01-0.014,0.021-0.026,0.033-0.041c0.01-0.013,0.021-0.025,0.033-0.039s0.023-0.026,0.035-0.039
		c0.012-0.014,0.023-0.026,0.035-0.04c0.014-0.013,0.025-0.026,0.037-0.039c0.012-0.015,0.025-0.027,0.037-0.04
		c0.012-0.014,0.025-0.027,0.039-0.04c0.012-0.013,0.025-0.026,0.037-0.04c0.014-0.014,0.027-0.025,0.041-0.039
		s0.027-0.027,0.041-0.04s0.027-0.026,0.041-0.04c0.014-0.013,0.029-0.025,0.043-0.039s0.029-0.027,0.043-0.04
		c0.016-0.013,0.029-0.026,0.045-0.04c0.016-0.013,0.031-0.025,0.045-0.039c0.016-0.014,0.031-0.027,0.047-0.039
		c0.018-0.015,0.033-0.027,0.049-0.041C8.729,9.902,8.744,9.89,8.762,9.876C8.777,9.862,8.795,9.85,8.813,9.837
		C8.828,9.823,8.846,9.81,8.863,9.796c0.018-0.013,0.035-0.025,0.053-0.039S8.951,9.73,8.971,9.718
		C8.988,9.703,9.006,9.69,9.025,9.677c0.02-0.012,0.037-0.026,0.057-0.039c0.02-0.014,0.039-0.026,0.059-0.039
		c0.02-0.014,0.041-0.027,0.061-0.04c0.021-0.013,0.041-0.027,0.063-0.04c0.021-0.014,0.043-0.026,0.063-0.04
		C9.35,9.466,9.371,9.452,9.393,9.439c0.021-0.015,0.045-0.027,0.068-0.04c0.023-0.014,0.045-0.027,0.068-0.04
		C9.555,9.347,9.578,9.333,9.604,9.32c0.023-0.014,0.049-0.026,0.074-0.04c0.025-0.013,0.051-0.027,0.076-0.04
		c0.027-0.013,0.055-0.026,0.08-0.039c0.029-0.014,0.057-0.026,0.084-0.04c0.029-0.013,0.059-0.027,0.086-0.039
		c0.031-0.014,0.061-0.027,0.092-0.039c0.031-0.015,0.063-0.027,0.096-0.041s0.064-0.026,0.1-0.039
		c0.033-0.014,0.068-0.027,0.105-0.041c0.035-0.013,0.072-0.025,0.109-0.039c0.039-0.014,0.078-0.026,0.117-0.039
		c0.043-0.015,0.086-0.027,0.127-0.041c0.045-0.012,0.092-0.026,0.139-0.039c0.049-0.014,0.1-0.026,0.15-0.039
		c0.055-0.014,0.111-0.027,0.166-0.04c0.063-0.015,0.125-0.027,0.189-0.04c0.076-0.014,0.15-0.027,0.227-0.039
		C11.719,8.63,11.816,8.616,11.916,8.605"/>
</g>
</svg>
