<?xml version="1.0" encoding="utf-8"?>
<!-- Generator: Adobe Illustrator 16.0.0, SVG Export Plug-In . SVG Version: 6.00 Build 0)  -->
<!DOCTYPE svg PUBLIC "-//W3C//DTD SVG 1.1//EN" "http://www.w3.org/Graphics/SVG/1.1/DTD/svg11.dtd">
<svg version="1.1" id="图层_1" xmlns="http://www.w3.org/2000/svg" xmlns:xlink="http://www.w3.org/1999/xlink" x="0px" y="0px"
	 width="30px" height="30px" viewBox="0 0 30 30" enable-background="new 0 0 30 30" xml:space="preserve">
<g>
	<path fill="#4F4D4D" d="M20.933,14.749c-0.958-0.18-0.493-0.679-0.493-0.679s0.938-1.493-0.187-2.579
		c-1.393-1.346-4.777,0.172-4.777,0.172c-1.293,0.387-0.951-0.178-0.768-1.137c0-1.133-0.402-3.049-3.847-1.916
		c-3.442,1.137-6.396,5.121-6.396,5.121c-2.056,2.646-1.784,4.691-1.784,4.691c0.514,4.518,5.485,5.758,9.351,6.051
		c4.069,0.308,9.56-1.353,11.223-4.768C24.921,16.286,21.896,14.933,20.933,14.749 M12.335,23.2
		c-4.039,0.182-7.305-1.773-7.305-4.374c0-2.604,3.266-4.693,7.305-4.872c4.04-0.18,7.311,1.427,7.311,4.025
		C19.646,20.581,16.375,23.024,12.335,23.2"/>
	<path fill="#4F4D4D" d="M11.528,15.669c-4.062,0.458-3.592,4.132-3.592,4.132s-0.042,1.162,1.088,1.755
		c2.376,1.241,4.824,0.49,6.061-1.051C16.323,18.963,15.596,15.213,11.528,15.669 M10.504,20.823
		c-0.759,0.084-1.37-0.338-1.37-0.948c0-0.611,0.544-1.249,1.302-1.325c0.872-0.079,1.438,0.404,1.438,1.018
		C11.874,20.175,11.26,20.739,10.504,20.823 M12.897,18.854c-0.257,0.186-0.571,0.161-0.708-0.063
		c-0.141-0.217-0.088-0.564,0.171-0.749c0.302-0.214,0.614-0.152,0.75,0.065C13.246,18.331,13.149,18.663,12.897,18.854"/>
	<path fill="#4F4D4D" d="M22.911,13.158c0.326,0,0.604-0.233,0.652-0.539c0.006-0.022,0.008-0.044,0.008-0.069
		c0.496-4.305-3.654-3.563-3.654-3.563c-0.367,0-0.663,0.288-0.663,0.646c0,0.352,0.296,0.641,0.663,0.641
		c2.981-0.635,2.324,2.242,2.324,2.242C22.241,12.874,22.543,13.158,22.911,13.158"/>
	<path fill="#4F4D4D" d="M22.427,5.643c-1.436-0.323-2.91-0.045-3.324,0.032c-0.031,0.003-0.062,0.031-0.092,0.037
		c-0.014,0.004-0.023,0.018-0.023,0.018c-0.407,0.112-0.706,0.476-0.706,0.906c0,0.514,0.432,0.936,0.969,0.936
		c0,0,0.523-0.069,0.876-0.203c0.352-0.137,3.325-0.101,4.801,2.291c0.806,1.75,0.354,2.916,0.297,3.105
		c0,0-0.189,0.454-0.189,0.901c0,0.515,0.43,0.839,0.964,0.839c0.446,0,0.82-0.059,0.931-0.787h0.006
		C28.521,8.618,24.995,6.221,22.427,5.643"/>
</g>
</svg>
